<svg id="visual" viewBox="0 0 900 600" width="900" height="600" xmlns="http://www.w3.org/2000/svg" xmlns:xlink="http://www.w3.org/1999/xlink" version="1.1"><rect x="0" y="0" width="900" height="600" fill="#0017ff"></rect><g transform="translate(449.2353095003641 334.59477108101885)"><path d="M91.7 -159.8C110.2 -130.7 110.6 -90.7 123.5 -57.8C136.3 -24.8 161.7 1 168.5 31.4C175.4 61.8 163.6 96.7 137.7 110.2C111.8 123.7 71.8 115.8 40.1 115.7C8.4 115.5 -15 123 -46.2 127.5C-77.4 132 -116.6 133.4 -140.7 116.1C-164.8 98.7 -174 62.5 -166.2 31.7C-158.5 0.9 -133.8 -24.5 -115.1 -47.2C-96.4 -70 -83.6 -90.1 -65.4 -119.3C-47.2 -148.5 -23.6 -186.7 6.5 -196.8C36.6 -206.9 73.2 -188.8 91.7 -159.8" fill="#0b00ba"></path></g></svg>